<svg width="170" height="30" viewBox="0 0 170 30" >
  <path d="M2.48-28.43L2.48 0 14.21 0C22.87 0 26.64-6.17 26.64-14.21 26.64-22.3 22.87-28.43 14.21-28.43ZM12.43-23.11C17.26-23.11 20.88-21.24 20.88-14.21 20.88-7.15 17.3-5.36 12.47-5.36L8-5.36 8-23.11ZM51.34-19.09C51.34-25.46 46.83-28.84 39.56-28.84 33.02-28.84 28.63-25.59 28.63-21.2 28.63-10.84 45.85-14.58 45.85-7.88 45.85-5.56 43.46-4.06 40.05-4.06 36.11-4.06 33.79-6.09 33.79-9.38L28.23-9.38C28.23-2.64 32.98 0.41 40.17 0.41 46.75 0.41 51.34-2.88 51.34-7.88 51.34-18.19 33.95-15.07 33.95-21.12 33.95-23.56 36.92-24.41 39.6-24.41 43.29-24.41 45.85-22.34 45.85-19.09ZM54.18-14.38L54.18-10.11 67.26-10.11 67.26-14.38ZM90.41-23.68L90.41-28.43 70.51-28.43 70.51-23.11 83.79-23.11 69.69-4.75 69.69 0 90.61 0 90.61-5.36 76.39-5.36ZM107.63-28.84L107.63-23.64C112.99-23.64 117.05-20.55 117.05-14.21 117.05-7.88 112.99-4.75 107.63-4.75 102.43-4.75 98.41-7.88 98.41-14.21 98.41-14.21 92.88-14.21 92.88-14.21 92.88-4.83 99.42 0.41 107.63 0.41 116.03 0.41 122.53-4.43 122.53-14.21 122.53-23.56 116.03-28.84 107.63-28.84ZM146.01 0L168.87 0 168.87-5.36 148.04-5.36 132.2-28.43 126.55-28.43ZM153.07-11.66L153.07-11.7 168.87-11.7 168.87-16.73 153.07-16.73 153.07-23.11 168.87-23.11 168.87-28.43 147.83-28.43 147.83-11.66ZM126.8 0L132.12 0 132.12-13.93 126.8-21.53Z" transform="translate(-2.4800000190734863, 28.84000015258789)"></path>
</svg>